# xmcd CD database file
#
# Track frame offsets:
#	150
#	27675
#	55660
#	72810
#	97355
#	128770
#	157070
#	188450
#	210775
#	237530
#	275165
#
# Disc length: 4438 seconds
#
# Revision: 1
# Processed by: cddbd v1.5.1PL0 Copyright (c) Steve Scherf et al.
# Submitted via: CDex 1.51
#
DISCID=a011540b
DTITLE=Gov't Mule - Life Before Insanity
DYEAR=2000
DGENRE=Rock
TTITLE0=Wandering Child
TTITLE1=Life Before Insanity
TTITLE2=Bad Little Doggie
TTITLE3=Lay Your Burden Down
TTITLE4=Fallen Down
TTITLE5=World Gone Wild
TTITLE6=Tastes Like Wine
TTITLE7=I Think You Know What I Mean
TTITLE8=Far Away
TTITLE9=No Need To Suffer
TTITLE10=In My Life
EXTD=YEAR: 2000
EXTT0=
EXTT1=
EXTT2=
EXTT3=
EXTT4=
EXTT5=
EXTT6=
EXTT7=
EXTT8=
EXTT9=
EXTT10=
PLAYORDER=
